<?xml version="1.0" encoding="utf-8"?>
<!-- Generator: Adobe Illustrator 18.1.1, SVG Export Plug-In . SVG Version: 6.00 Build 0)  -->
<!DOCTYPE svg PUBLIC "-//W3C//DTD SVG 1.1//EN" "http://www.w3.org/Graphics/SVG/1.1/DTD/svg11.dtd">
<svg version="1.1" id="home_basket" xmlns="http://www.w3.org/2000/svg" xmlns:xlink="http://www.w3.org/1999/xlink" x="0px"
	 y="0px" viewBox="88.2 32.6 56.7 56.7" enable-background="new 88.2 32.6 56.7 56.7" xml:space="preserve">
<path fill-rule="evenodd" clip-rule="evenodd" fill="#B0BD5A" d="M131.2,48.6c0.7-0.2,1.4-0.3,2.1-0.3c5.4,0,9.7,4.9,9.7,11
	c0,6-4.2,10.8-9.4,11l-2.1,12.3c-1.6-1-7.6-1.8-14.8-1.8c-7.2,0-13.3,0.8-14.8,1.8L99.7,70c-5.4-0.7-9.6-6.1-9.6-12.8
	c0-7.1,4.8-12.8,10.7-12.8c2,0,3.9,0.7,5.5,1.8c2.7-4.3,7-7.1,11.8-7.1C123.8,39.2,128.7,43,131.2,48.6L131.2,48.6z M101.2,70.4
	c0.4-0.1,0.8-0.2,1.2-0.2l1.3,10.6c-0.3,0.1-0.6,0.2-0.9,0.2L101.2,70.4L101.2,70.4z M127.2,69.9c0.4,0.1,0.8,0.1,1.2,0.2l-1.3,10.2
	c-0.3,0-0.6-0.1-0.9-0.1L127.2,69.9L127.2,69.9z M123.5,69.5c0.4,0,0.8,0.1,1.2,0.1l-1,10.1l-0.9-0.1L123.5,69.5L123.5,69.5z
	 M121,69.4l-0.6,10.1l-0.9,0l0.3-10.1L121,69.4z M117.3,69.3L117,79.3h-0.4h-0.5l-0.1-10.1L117.3,69.3z M113.5,69.3l0.1,10.1l-0.9,0
	l-0.4-10.1L113.5,69.3z M109.8,69.4l0.5,10.2l-0.9,0.1l-0.8-10.2L109.8,69.4z M104.9,69.8c0.4-0.1,0.8-0.1,1.2-0.1l0.9,10.3
	c-0.3,0.1-0.6,0.1-0.9,0.2L104.9,69.8L104.9,69.8z M130.8,70.4c0.4,0.1,0.8,0.2,1.2,0.3L130.3,81c-0.3-0.1-0.6-0.2-0.9-0.2
	L130.8,70.4L130.8,70.4z M118.3,41.9c5.8,0,10.7,4.6,12.3,11c-2.3-5.6-7-9.5-12.5-9.5c-4.6,0-8.6,2.7-11.1,6.8
	C109.1,45.2,113.4,41.9,118.3,41.9L118.3,41.9z M92.7,54.5c0,0.3,0,0.6,0,0.8c0,6.4,4.3,11.5,9.6,11.5c2,0,3.9-0.8,5.5-2
	c-1.6,2-3.9,3.3-6.5,3.3c-4.9,0-8.9-4.8-8.9-10.7C92.4,56.4,92.5,55.4,92.7,54.5L92.7,54.5z M115.1,67.6c8-3.6,12.9,0.5,16.8,0.2
	c4.7,0,8.6-4.3,8.6-9.7c0-1.3-0.2-2.5-0.6-3.7c0.7,1.4,1.2,3,1.2,4.8c0,4.6-2.9,8.4-6.7,9.2c-1.4,0.3-3.1,0.3-4.5,0.1
	C126,67.9,121.8,65.8,115.1,67.6L115.1,67.6z"/>
<path fill-rule="evenodd" clip-rule="evenodd" fill="#F9A11B" d="M-708.6,135.7c13.9,0,25.2,11.3,25.2,25.2
	c0,13.9-11.3,25.2-25.2,25.2h-0.4l-5.7,24.8c-4.2-2-20.3-3.5-39.5-3.5c-19.2,0-35.3,1.5-39.5,3.5l-5.7-24.8h-0.4
	c-14,0-25.2-11.3-25.2-25.2c0-13.9,11.3-25.2,25.2-25.2c6,0,11.5,2.1,15.8,5.6c6.4-9.5,17.3-15.9,29.6-15.9
	c12.4,0,23.3,6.3,29.6,15.9C-720.1,137.9-714.6,135.7-708.6,135.7L-708.6,135.7z M-754,240.2c-19.4-8.1-43.8,16.3-54.9,1.3
	c-4.5-7,2-12.9,7.2-10.5c-7.2,1.6-5.9,10.3,0.9,11.8c8.6,1.9,26.6-22.5,46.8-13.1c20.2-9.4,38.2,15,46.8,13.1
	c6.8-1.5,8.1-10.2,0.9-11.8c5.2-2.5,11.7,3.4,7.2,10.5C-710.2,256.5-734.6,232.1-754,240.2L-754,240.2z M-726.5,222.3
	c-4-4.7-13.5-5.4-18.2-1.5l-2.6-3.1c6.5-5.4,18.5-4.4,23.9,2.1L-726.5,222.3z M-781.6,222.3c4-4.7,13.5-5.4,18.2-1.5l2.6-3.1
	c-6.5-5.4-18.5-4.4-23.9,2.1L-781.6,222.3z"/>
<path fill-rule="evenodd" clip-rule="evenodd" fill="#F9A11B" d="M-708.5-78.1c-6.1,0-11.5,2.1-15.9,5.6
	c-6.4-9.6-17.3-15.9-29.6-15.9c-12.4,0-23.3,6.3-29.6,15.9c-4.3-3.5-9.9-5.6-15.9-5.6c-13.9,0-25.2,11.3-25.2,25.2
	c0,13.2,10.2,24.1,23.2,25.1V9.5h95v-37.2c13-1,23.2-11.9,23.2-25.1C-683.3-66.8-694.6-78.1-708.5-78.1L-708.5-78.1z"/>
<path fill="#F9A11B" d="M-263.1,232.4c-34.2-40-141.2-64-176.3-19.6c-35.1-44.6-142.1-20.5-176.3,19.6
	c69.1-24.1,96.5,1.7,120.5,10.1c17.2,5.9,37.6,7,55.8-9.4c18.2,16.5,38.6,15.4,55.8,9.4C-359.5,234.1-332.2,208.3-263.1,232.4
	L-263.1,232.4z M-483.8,182.4c-15.5,0-28-12.5-28-28c0-15.4,12.5-27.9,28-27.9c15.5,0,28,12.5,28,27.9
	C-455.8,169.9-468.3,182.4-483.8,182.4L-483.8,182.4z M-387.7,182.4c-15.5,0-28-12.5-28-28c0-15.4,12.5-27.9,28-27.9
	c15.4,0,27.9,12.5,27.9,27.9C-359.8,169.9-372.3,182.4-387.7,182.4L-387.7,182.4z M-312.6-59.7c39,0,70.4,31.5,70.4,70.3
	c0,36.8-28.5,67.1-64.6,69.9c-9.1-17.7-65-31.4-132.6-31.4c-67.5,0-123.5,13.6-132.6,31.4c-36.2-2.8-64.6-33.1-64.6-69.9
	c0-38.8,31.4-70.3,70.3-70.3c16.8,0,32.2,5.9,44.3,15.7c17.8-26.7,48.1-44.3,82.6-44.3c34.5,0,64.8,17.6,82.6,44.3
	C-344.7-53.8-329.4-59.7-312.6-59.7L-312.6-59.7z M-571.8,87.6c9.5-17.7,65.1-31.3,132.5-31.3c67.3,0,123,13.5,132.5,31.3v65.2
	c0-19.9-59.3-36-132.5-36c-73.1,0-132.5,16.1-132.5,36l0,0V87.6L-571.8,87.6z"/>
<g>
	<path fill-rule="evenodd" clip-rule="evenodd" fill="#F9A11B" d="M-242.8,286.3c-1.8-9.1-9.3-17.4-17.3-21.2
		c-10.3-4.9-26.9-4.2-35,1.9c-5.2-3-12.7-5.8-20.7-5.5c-6.3,0.2-11.9,2.6-16.3,4.8c-8.5-6-24.4-5.6-33.8-1.1
		c-8.7,4.2-16.4,12.8-17.7,24.2c-0.8,7,1.9,14.2,4.6,18.4c2.1,3.3,4.4,5.5,7.4,7.8c4.5,3.4,10,5.4,16.1,7.1c0,9.4,0,18.7,0,28.1
		c27.5,0,55,0,82.6,0c0-9.3,0-18.6,0-27.9c9.1-1.1,15.8-4,21.2-9.4C-245.6,307.7-240.4,298.5-242.8,286.3z M-258.2,309
		c-5.1,4.5-12.6,7.4-22.6,6.4c-0.4,9.1-0.1,19-0.2,28.5c-22.1,0-44.2,0-66.3,0c0-9.3,0-18.6,0-27.9c-7.2-0.2-13-1.7-17.5-4.8
		c-2.6-1.7-4.7-3.4-6.5-6c-3.7-5.2-5.4-14-2.5-21.2c2.1-5.2,7-9.9,11.7-12.2c3.1-1.5,8.2-2.6,12.6-2.7c7.6-0.1,12.7,3.3,17.5,6.4
		c4.5-2.7,9.6-6.1,16.4-6.4c8.6-0.3,15.5,3.6,20.5,7.4c3.2-2.1,5.5-4.2,8.7-5.5c16.3-6.5,34.5,3.7,36.1,19.5
		C-249.6,298.5-253.8,305-258.2,309z"/>
	<path fill-rule="evenodd" clip-rule="evenodd" fill="#F9A11B" d="M-258.7,283c-2,0.5-1.8,3.4-2.1,6c-0.3,2.1-0.4,4.1-0.9,5.7
		c-3.2,10.5-15,12.4-29.2,11.1c0,7.2,0,16.8,0,25.1c0,2.7-0.5,6.7,0.7,7.8c1.3,1.2,4.1,0.4,4.8-0.9c0-9,0-17.9,0-26.9
		c17.1,0.8,28.4-5.8,30.1-20C-254.9,287.2-254.3,281.9-258.7,283z"/>
</g>
<path fill="#F9A11B" d="M-414.1,261.9c-1.8-0.2-3.5-0.3-5.1-0.3c-13.1,0-20.1,6.8-29.2,7.9c-1.4,0.2-2.8,0.2-4.3,0.2
	c-6.3,0-13-1.4-19.5-1.4c-1.2,0-2.4,0-3.6,0.2c-15.1,1.5-31.6,10-37.6,18.4c-2.9,4.1-4.3,8.2-4.3,12c0,8.7,7.2,15.2,17,15.2
	c2.8,0,5.9-0.5,9.1-1.7c1.7,12,3.2,24.5,12.5,29.8l0.7,1.5c1,2.1,1.4,4,1.5,5.8l0,0.8l0.8,0.1c0.8,0.1,1.6,0.2,2.3,0.3l0.5,0.1
	l0.3-0.3c3.7-3.7,11.7-6.1,19.2-6.1c4.4,0,8.7,0.8,12,2.5l0.2,0.1l0.2,0c2.8,0.1,5.5,2,9,2.4c0.8,0.1,1.6,0.1,2.4,0.1
	c2.2,0,4.4-0.2,6.5-0.4l0.9-0.1v-0.8c4.7-13.4,3.2-27.2,3.8-43.7c0.9,0.1,1.8,0.1,2.7,0.1c8.3,0,14.5-2.4,18.6-6.2
	c4.1-3.7,6.2-8.8,6.1-14C-391.5,274.3-399.5,263.7-414.1,261.9z M-473.3,345.3c-0.1,0-0.2,0-0.2,0c-0.8,0-0.9-0.3-1.4-0.9
	c-0.3-0.5-0.8-1.3-1.8-1.7l0.6-1c-7.7-6.6-10.7-18.4-12.9-31.1c9.7-6,20.8-10.7,29.3-18.2c9.3,7.5,22.7,10.6,36.9,12.8
	c-0.6,16.2,0.5,29.1-3.5,41.8c-8.9-1-20.4-6.4-31.7-6.4c0,0,0,0,0,0C-463.2,340.7-468.5,341.9-473.3,345.3z M-456.7,290.1
	c0.4-0.7,1.2-1,2.4-1.6c1.3-0.6,3-1.6,3.1-3.9l0.1-1.4l-1.3,0.5c-10.9,4.3-31.6,25.6-49.2,25.5c-4.3,0-8.3-1.2-12.1-4.2
	c0.5-13,6.5-20.9,15.7-25.9c9.4-5,22.2-6.7,35.6-6.7c11.4,0,23.2,1.2,33.9,2.7l0.6-1.7c-3.7-2.2-9.1-2.3-13.3-3.3
	c5.7-3.2,12.9-4.8,20-4.8c13.9,0,26.6,6.1,27,18.4c0,0.2,0,0.4,0,0.6c0,5.9-3,9.8-7.9,12.5c-4.9,2.7-11.7,3.9-18.9,3.9
	C-434.9,300.7-450.4,296.2-456.7,290.1z"/>
<path fill-rule="evenodd" clip-rule="evenodd" fill="#F9A11B" d="M-526.1,298.3c-1.8-7.7-7.6-13-17-10.4c-0.1-5.5-3.4-11.5-8.4-14.2
	c-5.5-2.9-12.1-2-16.5,0.9c-0.3-0.6-4.8-9.4-13.6-10.6c-5.7-0.7-10.9,1.9-14.8,5.6c-2.7-3.3-12.7-10.5-23.5-7.3
	c-9.2,2.4-15.4,9.8-19,18.3c-18.4-12.7-41.6,10.3-35.6,27.8c2.4,7.1,9.9,10.4,16.5,14.6c0.7,12.3,12.7,19.7,25.3,16.5
	c0.8,3.5,2.6,10.6,2.9,11.3c21.4-1,67,0.1,67,0.1c0.8-1.3,0.7-11.4,1-14.2c13,3.9,19.1-6.9,19.4-16.3
	C-530.5,323-523.6,309.1-526.1,298.3z M-545.6,317c1.8,8.7-2.7,19.9-15.2,18c-1.2-0.2-1.3-1-1.4-2.1c-0.5-3.8-0.1-8.1,0.5-10.9
	c1.6-0.7,3.1-0.4,2.5-3.5c-4.1,2.3-10.6,2.4-15.1,1.5c0.7,4.4,8,2.4,10.8,2.3c-1.9,6.3,0.3,17.8-1.1,25.8c-17.1,0.7-43.6,0.2-63.3,0
	c-2.1-6.5-3.3-13.7-5.3-20.2c3.7,0,5.9-1.7,9.1-2.2c1.1,4-0.1,10.1,3.1,12.1c0-5.2-1.2-9.2-1.5-14.1c1.4-0.4,2.2-1.5,3.6-1.9
	c3.9,2.5,0.7,11.6,4,14.7c0.3-2.9-0.5-9.9-0.6-12.5c4-0.7,9.6-1.9,8.7-6.2c-3.2,1.4-6.2,4-9.7,3.7c-1.4-0.9-2-2.7-2.9-4.1
	c-6,7.7-16.3,9.7-23.6,1.7c-1.5,4.1,3.7,5.9,6.8,7.3c0.8,3.3,1.2,7,2.1,10.1c-11.7,4-22.2-5.1-20.5-16.3c-4.7-0.1-8-2.6-11.2-5.2
	c-8.2-6.8-8.8-18.4-2.2-25.8c12.7-14.5,24.9-7.7,30.4-5.3c4-12.1,12.3-19.9,23.6-19.9c7.6,0,13,6.8,17.3,9c3.2-3.4,9.7-7,14.7-6.4
	c5.7,0.6,12.2,10.5,12.7,11.5c3.5-2.1,7.7-3.5,12.5-3.1c3.9,0.4,6.5,2.7,8.3,5.9c0.9,1.6,2.6,8.5,2.6,10.5c3.2-0.8,4.4-1.8,8-1.6
	C-523.2,290.6-524.7,324.7-545.6,317z"/>
<path fill="#F9A11B" d="M-683.9,286.3c-1.8-9.1-9.3-17.4-17.3-21.2c-10.3-4.9-26.9-4.2-35,1.9c-5.2-3-12.7-5.8-20.7-5.5
	c-6.3,0.2-11.9,2.6-16.3,4.8c-8.5-6-24.4-5.6-33.8-1.1c-8.7,4.2-16.4,12.8-17.7,24.2c-0.8,7,1.9,14.2,4.6,18.4
	c2.1,3.3,4.4,5.5,7.4,7.8c4.5,3.4,10,5.4,16.1,7.1c0,9.4,0,18.7,0,28.1c27.5,0,55,0,82.6,0c0-9.3,0-18.6,0-27.9
	c9.1-1.1,15.8-4,21.2-9.4C-686.7,307.7-681.5,298.5-683.9,286.3z"/>
</svg>
